:SAMPLES-PER-SECOND 30
:FULLY-SPECIFIED
:DEGREES
49
root  -7.99415 36.9134 5.66411 177.398 47.7644 169.503
RightUpLeg  -25.1255 -7.4825 -19.4821
RightLeg  56.3905 -2.63105 -4.70279
RightFoot  -9.75003 -0.336416 19.2438
RightToes  2.32829e-010 0 -3.6325e-017
Spine  10.3687 0.456901 -12.2211
Spine1  21.1889 -1.68648 1.10563
HEad  -27.9843 33.1361 -20.697
LeftShoulder1  1.66793 -3.87645 -15.8295
LeftArm  22.8925 -3.2371 -61.862
LeftForeArm  13.7399 -68.1215 -28.2159
LeftHand  -2.93388 -3.09603 38.9628
RightShoulder  0.561926 -0.819191 14.1608
RightArm  8.18637 -10.7773 60.5585
RightForeArm  117.931 73.6195 138.505
RightHand  -1.10279 4.1494 -13.6319
LeftUpLeg  -12.8897 5.37277 4.25352
LeftLeg  32.1282 -1.60976 -0.698751
LeftFoot  -22.6534 -1.57712 -17.1792
LeftToes  -5.54824e-011 -8.71001e-011 8.3852e-012
50
root  -8.17567 37.1781 5.66357 177.911 47.5181 168.756
RightUpLeg  -23.2337 -7.86247 -17.9601
RightLeg  56.5437 -2.91716 -5.16913
RightFoot  -9.93478 -0.315573 19.9977
RightToes  2.32829e-010 0 -3.6325e-017
Spine  9.63083 0.204196 -12.029
Spine1  21.2244 -1.54947 0.382212
HEad  -27.019 32.2861 -19.7152
LeftShoulder1  1.70803 -4.08105 -15.746
LeftArm  22.0087 -3.86094 -62.4493
LeftForeArm  13.7958 -67.9981 -28.2849
LeftHand  -2.95448 -3.11232 39.1542
RightShoulder  0.640565 -0.516019 14.719
RightArm  8.90597 -11.9012 61.6102
RightForeArm  115.119 74.6422 135.001
RightHand  -1.19277 4.56982 -14.1252
LeftUpLeg  -13.3014 6.43828 3.4046
LeftLeg  29.8542 -2.60147 -1.25459
LeftFoot  -21.0524 -1.33222 -17.0342
LeftToes  -5.54824e-011 -8.71001e-011 8.3852e-012
51
root  -8.19485 37.7153 5.66162 179.45 47.6866 169.154
RightUpLeg  -20.3817 -8.7421 -14.7276
RightLeg  53.5886 -3.40998 -5.34407
RightFoot  -8.68379 -0.508201 19.2545
RightToes  2.32829e-010 0 -3.6325e-017
Spine  9.2375 -0.0396073 -10.6368
Spine1  19.7469 -1.34461 -0.0718515
HEad  -24.7701 32.0641 -18.6301
LeftShoulder1  1.48185 -3.02074 -15.9497
LeftArm  20.5634 -2.21687 -63.1044
LeftForeArm  24.4955 -71.6581 -34.479
LeftHand  -2.91208 -3.79492 35.9565
RightShoulder  0.680966 -0.247716 14.118
RightArm  10.4109 -13.5132 61.1296
RightForeArm  116.387 74.1223 136.765
RightHand  -1.08944 4.39697 -13.13
LeftUpLeg  -12.9578 6.40705 3.19844
LeftLeg  25.8075 -1.30785 -0.352436
LeftFoot  -17.647 -0.810812 -16.5018
LeftToes  -5.54824e-011 -8.71001e-011 8.3852e-012
52
root  -8.05533 38.2685 5.73033 -178.855 48.7518 169.583
RightUpLeg  -17.2815 -9.33737 -11.0504
RightLeg  48.7378 -3.32141 -4.40625
RightFoot  -6.86083 -0.828412 19.6898
RightToes  2.32829e-010 0 -3.6325e-017
Spine  8.4632 0.367498 -9.61757
Spine1  17.9223 -0.635453 -0.0344643
HEad  -22.6054 31.9969 -17.2305
LeftShoulder1  1.20851 -1.87196 -15.6785
LeftArm  18.8592 -0.412863 -63.9958
LeftForeArm  40.3151 -75.4981 -44.6962
LeftHand  -2.74522 -4.64896 31.3056
RightShoulder  0.68823 -0.0599603 13.0731
RightArm  11.2737 -14.1123 59.1419
RightForeArm  119.843 72.9817 140.429
RightHand  -0.890203 3.72726 -11.5657
LeftUpLeg  -12.7557 5.57601 3.29516
LeftLeg  22.2355 1.39001 0.97072
LeftFoot  -13.4328 -0.220284 -16.5779
LeftToes  -5.54824e-011 -8.71001e-011 8.3852e-012
53
root  -7.84699 38.6269 5.88669 -177.807 50.4038 169.326
RightUpLeg  -14.0693 -9.53709 -8.04382
RightLeg  43.6752 -2.01718 -2.37447
RightFoot  -5.79094 -1.19146 23.4529
RightToes  2.32829e-010 0 -3.6325e-017
Spine  7.63722 1.1702 -9.10784
Spine1  16.031 0.513705 -0.317701
HEad  -20.9894 31.8418 -15.5931
LeftShoulder1  1.05129 -1.42296 -14.4451
LeftArm  16.7547 0.376823 -64.5921
LeftForeArm  51.6164 -77.3819 -53.2412
LeftHand  -2.68126 -5.10546 29.3523
RightShoulder  0.684882 0.0855907 12.0648
RightArm  10.6582 -12.7836 57.0259
RightForeArm  120.633 72.3628 142.02
RightHand  -0.831994 3.29835 -11.3306
LeftUpLeg  -13.5814 4.85641 3.30901
LeftLeg  21.3017 4.19197 2.14361
LeftFoot  -9.61445 0.334339 -18.0407
LeftToes  -5.54824e-011 -8.71001e-011 8.3852e-012
54
root  -7.66966 38.7406 6.07569 -177.445 51.6476 168.66
RightUpLeg  -10.4206 -10.3982 -5.75953
RightLeg  38.9696 -0.248555 -0.483773
RightFoot  -5.49563 -1.45643 27.3908
RightToes  2.32829e-010 0 -3.6325e-017
Spine  7.49559 1.59983 -8.08102
Spine1  13.8756 1.43464 -1.26676
HEad  -19.8827 31.4262 -14.4841
LeftShoulder1  0.978024 -1.40713 -12.8742
LeftArm  14.1416 0.315776 -64.1215
LeftForeArm  51.6656 -77.4453 -54.0263
LeftHand  -2.86053 -5.10972 31.1867
RightShoulder  0.673326 0.247844 10.7957
RightArm  8.87016 -9.472 56.0591
RightForeArm  116.372 72.5414 140.947
RightHand  -0.940715 3.30966 -12.746
LeftUpLeg  -16.0347 4.99961 2.99854
LeftLeg  24.2026 7.21209 3.89693
LeftFoot  -6.36969 0.886544 -19.4669
LeftToes  -5.54824e-011 -8.71001e-011 8.3852e-012
55
root  -7.52452 38.5681 6.25221 -177.183 52.2123 168.204
RightUpLeg  -6.56545 -12.3066 -3.69863
RightLeg  34.5744 0.134096 -0.134977
RightFoot  -6.16273 -1.25568 26.2666
RightToes  2.32829e-010 0 -3.6325e-017
Spine  7.7674 1.57552 -6.16527
Spine1  11.9272 1.92304 -2.26257
HEad  -19.4993 30.6578 -14.4175
LeftShoulder1  0.943303 -1.45947 -11.869
LeftArm  10.9637 0.0168409 -62.7752
LeftForeArm  44.9322 -76.3772 -48.4047
LeftHand  -3.1014 -5.04844 33.851
RightShoulder  0.645173 0.357517 9.39453
RightArm  6.64517 -4.36276 55.5738
RightForeArm  110.691 72.7204 139.656
RightHand  -1.03798 3.26125 -14.1164
LeftUpLeg  -20.4477 5.39205 2.44834
LeftLeg  31.3853 10.437 7.1964
LeftFoot  -3.91815 1.24118 -18.6857
LeftToes  -5.54824e-011 -8.71001e-011 8.3852e-012
